<svg xmlns="http://www.w3.org/2000/svg" viewBox="0 0 32 32" fill="none">
  <rect width="32" height="32" rx="8" fill="#e9d5ff"/>
  <g fill="#facc15" transform="translate(16 16)">
    <path d="M-1.2 6.1C-2.3 2.7-2 0-0.6-1.1 0-1.6 0.6-1.1 2 0 2.3 2.7 1.2 6.1 0.7 7.1 0 7.2-0.7 7.1-1.2 6.1Z" transform="rotate(0)"/>
    <path d="M-1.2 6.1C-2.3 2.7-2 0-0.6-1.1 0-1.6 0.6-1.1 2 0 2.3 2.7 1.2 6.1 0.7 7.1 0 7.2-0.7 7.1-1.2 6.1Z" transform="rotate(45)"/>
    <path d="M-1.2 6.1C-2.3 2.7-2 0-0.6-1.1 0-1.6 0.6-1.1 2 0 2.3 2.7 1.2 6.1 0.7 7.1 0 7.2-0.7 7.1-1.2 6.1Z" transform="rotate(90)"/>
    <path d="M-1.2 6.1C-2.3 2.7-2 0-0.6-1.1 0-1.6 0.6-1.1 2 0 2.3 2.7 1.2 6.1 0.7 7.1 0 7.2-0.7 7.1-1.2 6.1Z" transform="rotate(135)"/>
    <path d="M-1.2 6.1C-2.3 2.7-2 0-0.6-1.1 0-1.6 0.6-1.1 2 0 2.3 2.7 1.2 6.1 0.7 7.1 0 7.2-0.7 7.1-1.2 6.1Z" transform="rotate(180)"/>
    <path d="M-1.2 6.1C-2.3 2.7-2 0-0.6-1.1 0-1.6 0.6-1.1 2 0 2.3 2.7 1.2 6.1 0.7 7.1 0 7.2-0.7 7.1-1.2 6.1Z" transform="rotate(225)"/>
    <path d="M-1.2 6.1C-2.3 2.7-2 0-0.6-1.1 0-1.6 0.6-1.1 2 0 2.3 2.7 1.2 6.1 0.7 7.1 0 7.2-0.7 7.1-1.2 6.1Z" transform="rotate(270)"/>
    <path d="M-1.2 6.1C-2.3 2.7-2 0-0.6-1.1 0-1.6 0.6-1.1 2 0 2.3 2.7 1.2 6.1 0.7 7.1 0 7.2-0.7 7.1-1.2 6.1Z" transform="rotate(315)"/>
  </g>
  <circle cx="16" cy="16" r="5.4" fill="none" stroke="#ddd6fe" stroke-width="1.2"/>
  <circle cx="16" cy="16" r="4.3" fill="#fde047"/>
</svg>
